<?xml version="1.0" encoding="utf-8"?>
<!-- Generator: Adobe Illustrator 24.1.3, SVG Export Plug-In . SVG Version: 6.00 Build 0)  -->
<svg version="1.1" id="Layer_1" xmlns="http://www.w3.org/2000/svg" xmlns:xlink="http://www.w3.org/1999/xlink" x="0px" y="0px"
	 viewBox="0 0 100 76" style="enable-background:new 0 0 100 76;" xml:space="preserve">
<style type="text/css">
	.st0{fill:#5E5E5E;}
	.st1{fill:#04133E;}
	.st2{clip-path:url(#SVGID_4_);fill:url(#SVGID_5_);}
	.st3{fill:#3B4A5C;}
	.st4{fill:#374657;}
	.st5{fill:none;stroke:#606161;stroke-width:2;stroke-miterlimit:10;}
	.st6{fill:#141515;}
	.st7{fill:url(#SVGID_6_);}
	.st8{fill:url(#SVGID_7_);}
	.st9{fill:url(#SVGID_8_);}
	.st10{fill:url(#SVGID_9_);}
	.st11{fill:url(#SVGID_10_);}
	.st12{fill:url(#SVGID_11_);}
	.st13{fill:url(#SVGID_12_);}
	.st14{fill:url(#SVGID_13_);}
	.st15{fill:url(#SVGID_14_);}
	.st16{fill:url(#SVGID_15_);}
	.st17{fill:url(#SVGID_16_);}
	.st18{fill:none;stroke:#BFA74C;stroke-width:1.107;stroke-linecap:round;stroke-miterlimit:10;}
	.st19{fill:url(#SVGID_17_);}
	.st20{fill:url(#SVGID_18_);}
	.st21{fill:url(#SVGID_19_);}
	.st22{fill:#BFA74D;}
	.st23{fill:#CECECE;}
	.st24{fill:#797979;}
	.st25{fill:#E5E5E5;}
	.st26{fill:#D4D4D4;}
	.st27{fill:#C5C5C5;}
	.st28{fill:#E1C478;}
	.st29{fill:#DDBD68;}
	.st30{fill:#DAB658;}
	.st31{fill:#C6A34F;}
	.st32{fill:#AE9145;}
	.st33{fill:#F10006;}
	.st34{fill:#000027;}
	.st35{fill:#812081;}
	.st36{fill:#8C7734;}
	.st37{fill:url(#SVGID_20_);}
	.st38{fill:url(#SVGID_21_);}
	.st39{fill:url(#SVGID_22_);}
	.st40{fill:url(#SVGID_23_);}
	.st41{fill:url(#SVGID_24_);}
	.st42{fill:url(#SVGID_25_);}
	.st43{fill:url(#SVGID_26_);}
	.st44{fill:url(#SVGID_27_);}
	.st45{fill:url(#SVGID_28_);}
	.st46{fill:url(#SVGID_29_);}
	.st47{fill:url(#SVGID_30_);}
	.st48{fill:none;stroke:#BFA74C;stroke-width:3.5679;stroke-linecap:round;stroke-miterlimit:10;}
	.st49{fill:url(#SVGID_31_);}
	.st50{fill:url(#SVGID_32_);}
	.st51{fill:url(#SVGID_33_);}
	.st52{fill:url(#SVGID_34_);}
	.st53{fill:url(#SVGID_35_);}
	.st54{fill:url(#SVGID_36_);}
	.st55{fill:url(#SVGID_37_);}
	.st56{fill:url(#SVGID_38_);}
	.st57{fill:url(#SVGID_39_);}
	.st58{fill:url(#SVGID_40_);}
	.st59{fill:url(#SVGID_41_);}
	.st60{fill:url(#SVGID_42_);}
	.st61{fill:url(#SVGID_43_);}
	.st62{fill:url(#SVGID_44_);}
	.st63{fill:url(#SVGID_45_);}
	.st64{fill:url(#SVGID_46_);}
	.st65{fill:url(#SVGID_47_);}
	.st66{fill:url(#SVGID_48_);}
	.st67{fill:url(#SVGID_49_);}
	.st68{fill:url(#SVGID_50_);}
	.st69{fill:url(#SVGID_51_);}
	.st70{fill:url(#SVGID_52_);}
	.st71{fill:url(#SVGID_53_);}
	.st72{fill:url(#SVGID_54_);}
	.st73{fill:url(#SVGID_55_);}
	.st74{fill:url(#SVGID_56_);}
	.st75{fill:url(#SVGID_57_);}
	.st76{fill:url(#SVGID_58_);}
	.st77{fill:url(#SVGID_59_);}
	.st78{fill:url(#SVGID_60_);}
	.st79{fill:url(#SVGID_61_);}
	.st80{fill:#FFFFFF;}
	.st81{fill:none;stroke:#CECECE;stroke-width:3.5679;stroke-linecap:round;stroke-miterlimit:10;}
	.st82{opacity:0.85;fill:#05070F;}
	.st83{fill:url(#SVGID_64_);}
	.st84{fill:url(#SVGID_65_);}
	.st85{fill:url(#SVGID_66_);}
	.st86{fill:url(#SVGID_67_);}
	.st87{fill:url(#SVGID_68_);}
	.st88{fill:url(#SVGID_69_);}
	.st89{fill:url(#SVGID_70_);}
	.st90{fill:url(#SVGID_71_);}
	.st91{fill:url(#SVGID_72_);}
	.st92{fill:url(#SVGID_73_);}
	.st93{fill:url(#SVGID_74_);}
	.st94{fill:none;stroke:#BFA74C;stroke-width:4.6907;stroke-linecap:round;stroke-miterlimit:10;}
	.st95{fill:url(#SVGID_75_);}
	.st96{fill:url(#SVGID_76_);}
	.st97{fill:url(#SVGID_77_);}
	.st98{fill:url(#SVGID_84_);}
	.st99{fill:url(#SVGID_85_);}
	.st100{fill:url(#SVGID_86_);}
	.st101{fill:url(#SVGID_87_);}
	.st102{fill:url(#SVGID_88_);}
	.st103{fill:url(#SVGID_89_);}
	.st104{fill:url(#SVGID_90_);}
	.st105{fill:url(#SVGID_91_);}
	.st106{fill:url(#SVGID_92_);}
	.st107{fill:url(#SVGID_93_);}
	.st108{fill:url(#SVGID_94_);}
	.st109{fill:url(#SVGID_95_);}
	.st110{fill:none;stroke:#BFA74C;stroke-width:1.2579;stroke-linecap:round;stroke-miterlimit:10;}
	.st111{fill:url(#SVGID_96_);}
	.st112{fill:url(#SVGID_97_);}
	.st113{fill:url(#SVGID_98_);}
	.st114{clip-path:url(#SVGID_104_);fill:url(#SVGID_105_);}
	.st115{fill:url(#SVGID_108_);}
	.st116{fill:url(#SVGID_109_);}
	.st117{fill:url(#SVGID_110_);}
	.st118{fill:url(#SVGID_111_);}
	.st119{fill:url(#SVGID_112_);}
	.st120{fill:url(#SVGID_113_);}
	.st121{fill:url(#SVGID_114_);}
	.st122{fill:url(#SVGID_115_);}
	.st123{fill:url(#SVGID_116_);}
	.st124{fill:url(#SVGID_117_);}
	.st125{fill:url(#SVGID_118_);}
	.st126{fill:url(#SVGID_119_);}
	.st127{fill:url(#SVGID_120_);}
	.st128{fill:url(#SVGID_121_);}
	.st129{fill:url(#SVGID_122_);}
	.st130{fill:url(#SVGID_123_);}
	.st131{fill:url(#SVGID_124_);}
	.st132{fill:url(#SVGID_125_);}
	.st133{fill:url(#SVGID_126_);}
	.st134{fill:url(#SVGID_129_);}
	.st135{fill:url(#SVGID_130_);}
	.st136{fill:url(#SVGID_131_);}
	.st137{fill:url(#SVGID_132_);}
	.st138{fill:url(#SVGID_133_);}
	.st139{fill:url(#SVGID_134_);}
	.st140{fill:url(#SVGID_135_);}
	.st141{fill:url(#SVGID_136_);}
	.st142{fill:url(#SVGID_137_);}
	.st143{fill:url(#SVGID_138_);}
	.st144{fill:url(#SVGID_139_);}
	.st145{fill:url(#SVGID_140_);}
	.st146{fill:url(#SVGID_141_);}
	.st147{fill:url(#SVGID_142_);}
	.st148{fill:url(#SVGID_143_);}
	.st149{fill:url(#SVGID_144_);}
	.st150{fill:url(#SVGID_145_);}
	.st151{fill:url(#SVGID_146_);}
	.st152{fill:url(#SVGID_147_);}
	.st153{fill:url(#SVGID_148_);}
	.st154{fill:url(#SVGID_149_);}
	.st155{fill:url(#SVGID_150_);}
	.st156{fill:url(#SVGID_151_);}
	.st157{fill:url(#SVGID_152_);}
	.st158{fill:url(#SVGID_153_);}
	.st159{fill:url(#SVGID_154_);}
	.st160{fill:url(#SVGID_155_);}
	.st161{fill:url(#SVGID_158_);stroke:#E1C477;stroke-width:2.7097;stroke-miterlimit:10;}
	.st162{fill:url(#SVGID_159_);stroke:#E1C477;stroke-width:2.7097;stroke-miterlimit:10;}
	.st163{fill:url(#SVGID_160_);stroke:#E1C477;stroke-width:2.7097;stroke-miterlimit:10;}
	.st164{fill:url(#SVGID_161_);stroke:#E1C477;stroke-width:2.7097;stroke-miterlimit:10;}
	.st165{fill:url(#SVGID_162_);stroke:#E1C477;stroke-width:2.7097;stroke-miterlimit:10;}
	.st166{fill:url(#SVGID_163_);stroke:#E1C477;stroke-width:2.7097;stroke-miterlimit:10;}
	.st167{fill:url(#SVGID_164_);stroke:#E1C477;stroke-width:2.7097;stroke-miterlimit:10;}
	.st168{fill:url(#SVGID_165_);stroke:#E1C477;stroke-width:2.7097;stroke-miterlimit:10;}
	.st169{fill:url(#SVGID_166_);}
	.st170{fill:url(#SVGID_167_);}
	.st171{fill:url(#SVGID_168_);}
	.st172{fill:url(#SVGID_169_);}
	.st173{fill:url(#SVGID_170_);}
	.st174{fill:url(#SVGID_171_);}
	.st175{fill:url(#SVGID_172_);}
	.st176{fill:url(#SVGID_173_);}
	.st177{fill:url(#SVGID_174_);}
	.st178{fill:url(#SVGID_175_);}
	.st179{fill:url(#SVGID_176_);}
	.st180{fill:url(#SVGID_177_);}
	.st181{fill:url(#SVGID_178_);}
	.st182{fill:url(#SVGID_181_);}
</style>
<g>
	<g>
		<linearGradient id="SVGID_2_" gradientUnits="userSpaceOnUse" x1="27.7135" y1="72.993" x2="31.523" y2="72.993">
			<stop  offset="0" style="stop-color:#C5C5C5"/>
			<stop  offset="0.0262" style="stop-color:#CBCBCB"/>
			<stop  offset="0.0854" style="stop-color:#D2D2D2"/>
			<stop  offset="0.25" style="stop-color:#D4D4D4"/>
			<stop  offset="0.5" style="stop-color:#E5E5E5"/>
			<stop  offset="0.75" style="stop-color:#797979"/>
			<stop  offset="0.7676" style="stop-color:#939393"/>
			<stop  offset="0.7881" style="stop-color:#A9A9A9"/>
			<stop  offset="0.8122" style="stop-color:#BABABA"/>
			<stop  offset="0.842" style="stop-color:#C5C5C5"/>
			<stop  offset="0.8838" style="stop-color:#CCCCCC"/>
			<stop  offset="1" style="stop-color:#CECECE"/>
		</linearGradient>
		<path style="fill:url(#SVGID_2_);" d="M29.21,73.34v2.55h-1.12v-5.15c0-0.1-0.04-0.18-0.11-0.22c-0.07-0.04-0.16-0.06-0.27-0.06
			v-0.13c0.02-0.02,0.05-0.04,0.09-0.07c0.03-0.01,0.08-0.03,0.14-0.04c0.06-0.02,0.14-0.02,0.25-0.02h2.92
			c0.06,0,0.12-0.01,0.15-0.02c0.04-0.01,0.07-0.02,0.1-0.03c0.03-0.02,0.05-0.04,0.06-0.06l0.11,0.09c0,0.15-0.05,0.28-0.14,0.41
			c-0.09,0.12-0.24,0.18-0.44,0.18h-1.73v2h1.12c0.11,0,0.19-0.02,0.24-0.05c0.03-0.02,0.05-0.04,0.07-0.06l0.1,0.08
			c0,0.16-0.05,0.3-0.14,0.42c-0.09,0.12-0.24,0.18-0.44,0.18H29.21z"/>
		<linearGradient id="SVGID_4_" gradientUnits="userSpaceOnUse" x1="31.9485" y1="73.0268" x2="37.9527" y2="73.0268">
			<stop  offset="0" style="stop-color:#C5C5C5"/>
			<stop  offset="0.0262" style="stop-color:#CBCBCB"/>
			<stop  offset="0.0854" style="stop-color:#D2D2D2"/>
			<stop  offset="0.25" style="stop-color:#D4D4D4"/>
			<stop  offset="0.5" style="stop-color:#E5E5E5"/>
			<stop  offset="0.75" style="stop-color:#797979"/>
			<stop  offset="0.7676" style="stop-color:#939393"/>
			<stop  offset="0.7881" style="stop-color:#A9A9A9"/>
			<stop  offset="0.8122" style="stop-color:#BABABA"/>
			<stop  offset="0.842" style="stop-color:#C5C5C5"/>
			<stop  offset="0.8838" style="stop-color:#CCCCCC"/>
			<stop  offset="1" style="stop-color:#CECECE"/>
		</linearGradient>
		<path style="fill:url(#SVGID_4_);" d="M35.78,70.09h0.48l1.69,5.8h-1.33l-0.25-1.03c-0.2-0.16-0.44-0.33-0.71-0.51
			c-0.27-0.18-0.54-0.33-0.79-0.44c-0.09,0.23-0.17,0.42-0.25,0.59c-0.07,0.17-0.14,0.3-0.19,0.39c-0.42,0.71-0.92,1.06-1.49,1.06
			c-0.15,0-0.29-0.03-0.42-0.09c-0.12-0.06-0.23-0.14-0.31-0.23c-0.09-0.09-0.15-0.19-0.2-0.29c-0.05-0.1-0.07-0.2-0.07-0.28
			c0-0.18,0.05-0.33,0.15-0.44c0.1-0.11,0.26-0.17,0.46-0.17c0.16,0,0.29,0.04,0.37,0.12c0.09,0.08,0.13,0.18,0.13,0.29
			c0,0.1-0.02,0.18-0.07,0.26c-0.05,0.07-0.09,0.13-0.12,0.18c-0.03,0.05-0.04,0.08-0.03,0.1c0.01,0.02,0.08,0.03,0.19,0.03
			c0.18,0,0.37-0.08,0.56-0.23c0.19-0.15,0.38-0.45,0.57-0.9l0.21-0.55c-0.02,0-0.04,0-0.06,0s-0.04,0-0.06,0
			c-0.13,0-0.23,0.02-0.31,0.06c-0.08,0.04-0.14,0.08-0.18,0.13c-0.05,0.05-0.08,0.11-0.1,0.17l-0.09-0.05
			c-0.05-0.17-0.06-0.32-0.04-0.45c0.01-0.12,0.06-0.22,0.14-0.32c0.08-0.1,0.22-0.15,0.41-0.15c0.13,0,0.29,0.04,0.48,0.11
			c0.12-0.31,0.25-0.64,0.39-1c0.14-0.35,0.26-0.68,0.38-0.99c0.12-0.31,0.21-0.57,0.29-0.78C35.72,70.26,35.76,70.13,35.78,70.09
			L35.78,70.09z M35.05,73.46c0.19,0.11,0.39,0.23,0.59,0.37c0.2,0.14,0.39,0.28,0.58,0.43l-0.57-2.41
			c-0.09,0.25-0.19,0.51-0.29,0.79C35.26,72.91,35.16,73.19,35.05,73.46z"/>
		<linearGradient id="SVGID_5_" gradientUnits="userSpaceOnUse" x1="39.838" y1="73.0268" x2="44.5659" y2="73.0268">
			<stop  offset="0" style="stop-color:#C5C5C5"/>
			<stop  offset="0.0262" style="stop-color:#CBCBCB"/>
			<stop  offset="0.0854" style="stop-color:#D2D2D2"/>
			<stop  offset="0.25" style="stop-color:#D4D4D4"/>
			<stop  offset="0.5" style="stop-color:#E5E5E5"/>
			<stop  offset="0.75" style="stop-color:#797979"/>
			<stop  offset="0.7676" style="stop-color:#939393"/>
			<stop  offset="0.7881" style="stop-color:#A9A9A9"/>
			<stop  offset="0.8122" style="stop-color:#BABABA"/>
			<stop  offset="0.842" style="stop-color:#C5C5C5"/>
			<stop  offset="0.8838" style="stop-color:#CCCCCC"/>
			<stop  offset="1" style="stop-color:#CECECE"/>
		</linearGradient>
		<path style="fill:url(#SVGID_5_);" d="M39.93,71.72c0-0.19,0.04-0.39,0.13-0.58c0.08-0.19,0.22-0.37,0.4-0.52
			c0.18-0.15,0.41-0.28,0.7-0.38c0.29-0.1,0.63-0.15,1.03-0.15c0.36,0,0.67,0.04,0.91,0.12c0.25,0.08,0.45,0.18,0.6,0.3
			c0.15,0.12,0.27,0.25,0.33,0.39c0.07,0.14,0.1,0.27,0.1,0.38c0,0.1-0.02,0.19-0.06,0.29c-0.04,0.1-0.1,0.19-0.17,0.27
			c-0.07,0.08-0.16,0.15-0.26,0.2c-0.1,0.05-0.21,0.08-0.32,0.08c-0.21,0-0.38-0.06-0.53-0.19c-0.15-0.13-0.22-0.32-0.22-0.58
			c0-0.11,0.02-0.21,0.06-0.29c0.04-0.08,0.08-0.16,0.13-0.22c0.04-0.06,0.08-0.12,0.1-0.16c0.03-0.05,0.02-0.08-0.01-0.11
			c-0.03-0.03-0.1-0.04-0.2-0.06c-0.1-0.01-0.26-0.02-0.48-0.02c-0.17,0-0.34,0.02-0.51,0.05c-0.17,0.03-0.32,0.08-0.45,0.15
			c-0.13,0.07-0.24,0.15-0.32,0.26c-0.08,0.11-0.12,0.23-0.12,0.37c0,0.13,0.05,0.25,0.15,0.36c0.1,0.11,0.23,0.21,0.38,0.3
			c0.15,0.09,0.33,0.18,0.52,0.26c0.19,0.08,0.37,0.16,0.55,0.23c0.23,0.1,0.48,0.2,0.73,0.32c0.26,0.12,0.49,0.25,0.71,0.4
			c0.22,0.15,0.39,0.32,0.54,0.51c0.14,0.19,0.21,0.4,0.21,0.64c0,0.24-0.06,0.46-0.19,0.66c-0.13,0.2-0.3,0.37-0.53,0.51
			s-0.49,0.25-0.8,0.33c-0.31,0.08-0.64,0.12-1.01,0.12c-0.42,0-0.77-0.04-1.05-0.13c-0.28-0.08-0.51-0.19-0.68-0.33
			c-0.17-0.14-0.29-0.28-0.37-0.44c-0.07-0.16-0.11-0.32-0.11-0.47c0-0.3,0.09-0.53,0.27-0.7c0.18-0.17,0.39-0.25,0.62-0.25
			c0.18,0,0.33,0.04,0.46,0.11c0.13,0.07,0.23,0.16,0.3,0.27c0.08,0.1,0.13,0.21,0.17,0.31c0.04,0.11,0.05,0.19,0.05,0.25
			l-0.09,0.08c-0.05-0.09-0.11-0.17-0.18-0.24c-0.06-0.06-0.14-0.11-0.23-0.16c-0.09-0.05-0.19-0.08-0.3-0.08
			c-0.12,0-0.22,0.05-0.29,0.14c-0.07,0.09-0.1,0.2-0.1,0.32c0,0.11,0.04,0.22,0.11,0.34c0.07,0.11,0.17,0.22,0.29,0.31
			c0.12,0.09,0.26,0.16,0.43,0.22c0.16,0.06,0.33,0.08,0.52,0.08c0.2,0,0.39-0.01,0.57-0.03c0.18-0.02,0.33-0.06,0.47-0.12
			c0.14-0.06,0.24-0.14,0.32-0.23c0.08-0.1,0.12-0.22,0.12-0.37c0-0.16-0.05-0.3-0.14-0.43c-0.09-0.12-0.22-0.24-0.39-0.34
			c-0.16-0.1-0.36-0.21-0.59-0.31c-0.23-0.1-0.48-0.21-0.76-0.34c-0.52-0.25-0.91-0.5-1.16-0.75C40.06,72.4,39.93,72.09,39.93,71.72
			z"/>
		<linearGradient id="SVGID_6_" gradientUnits="userSpaceOnUse" x1="46.4319" y1="72.993" x2="51.7497" y2="72.993">
			<stop  offset="0" style="stop-color:#C5C5C5"/>
			<stop  offset="0.0262" style="stop-color:#CBCBCB"/>
			<stop  offset="0.0854" style="stop-color:#D2D2D2"/>
			<stop  offset="0.25" style="stop-color:#D4D4D4"/>
			<stop  offset="0.5" style="stop-color:#E5E5E5"/>
			<stop  offset="0.75" style="stop-color:#797979"/>
			<stop  offset="0.7676" style="stop-color:#939393"/>
			<stop  offset="0.7881" style="stop-color:#A9A9A9"/>
			<stop  offset="0.8122" style="stop-color:#BABABA"/>
			<stop  offset="0.842" style="stop-color:#C5C5C5"/>
			<stop  offset="0.8838" style="stop-color:#CCCCCC"/>
			<stop  offset="1" style="stop-color:#CECECE"/>
		</linearGradient>
		<path class="st7" d="M46.43,70.32c0.06-0.04,0.13-0.08,0.2-0.12c0.06-0.03,0.14-0.06,0.23-0.08c0.09-0.02,0.18-0.03,0.29-0.03
			c0.32,0,0.53,0.07,0.64,0.22c0.11,0.14,0.16,0.33,0.16,0.56v1.89h2.65v-2.02c0-0.1-0.03-0.18-0.1-0.23
			c-0.07-0.05-0.16-0.07-0.28-0.07v-0.12c0.06-0.04,0.14-0.08,0.21-0.12c0.07-0.03,0.15-0.06,0.24-0.08
			c0.09-0.02,0.18-0.03,0.29-0.03c0.32,0,0.53,0.07,0.63,0.22c0.11,0.15,0.16,0.33,0.16,0.57v5.02H50.6v-2.56h-2.65v2.56H46.8v-5.15
			c0-0.1-0.03-0.18-0.1-0.23c-0.07-0.05-0.16-0.07-0.27-0.07V70.32z"/>
		<linearGradient id="SVGID_7_" gradientUnits="userSpaceOnUse" x1="53.8864" y1="72.993" x2="56.2166" y2="72.993">
			<stop  offset="0" style="stop-color:#C5C5C5"/>
			<stop  offset="0.0262" style="stop-color:#CBCBCB"/>
			<stop  offset="0.0854" style="stop-color:#D2D2D2"/>
			<stop  offset="0.25" style="stop-color:#D4D4D4"/>
			<stop  offset="0.5" style="stop-color:#E5E5E5"/>
			<stop  offset="0.75" style="stop-color:#797979"/>
			<stop  offset="0.7676" style="stop-color:#939393"/>
			<stop  offset="0.7881" style="stop-color:#A9A9A9"/>
			<stop  offset="0.8122" style="stop-color:#BABABA"/>
			<stop  offset="0.842" style="stop-color:#C5C5C5"/>
			<stop  offset="0.8838" style="stop-color:#CCCCCC"/>
			<stop  offset="1" style="stop-color:#CECECE"/>
		</linearGradient>
		<path class="st8" d="M54.48,70.65c-0.11,0-0.2,0.01-0.26,0.02c-0.06,0.01-0.11,0.03-0.15,0.04c-0.04,0.02-0.07,0.04-0.09,0.06
			l-0.1-0.08c0-0.15,0.05-0.29,0.14-0.41c0.09-0.12,0.24-0.18,0.44-0.19h1.33c0.11,0,0.19-0.02,0.24-0.05
			c0.03-0.02,0.05-0.04,0.07-0.06l0.1,0.08c0,0.15-0.05,0.29-0.14,0.41c-0.09,0.12-0.24,0.18-0.44,0.19v4.66
			c0.1,0,0.19-0.01,0.26-0.02c0.07-0.01,0.12-0.03,0.15-0.04c0.04-0.02,0.07-0.04,0.09-0.06l0.1,0.08c0,0.16-0.05,0.3-0.14,0.42
			c-0.09,0.12-0.24,0.19-0.44,0.19H54.3c-0.06,0-0.11,0.01-0.15,0.02c-0.04,0.01-0.07,0.03-0.09,0.04
			c-0.03,0.02-0.05,0.04-0.07,0.05l-0.1-0.08c0-0.16,0.05-0.3,0.14-0.42c0.09-0.12,0.24-0.18,0.44-0.19V70.65z"/>
		<linearGradient id="SVGID_8_" gradientUnits="userSpaceOnUse" x1="57.9085" y1="73.0316" x2="64.4253" y2="73.0316">
			<stop  offset="0" style="stop-color:#C5C5C5"/>
			<stop  offset="0.0262" style="stop-color:#CBCBCB"/>
			<stop  offset="0.0854" style="stop-color:#D2D2D2"/>
			<stop  offset="0.25" style="stop-color:#D4D4D4"/>
			<stop  offset="0.5" style="stop-color:#E5E5E5"/>
			<stop  offset="0.75" style="stop-color:#797979"/>
			<stop  offset="0.7676" style="stop-color:#939393"/>
			<stop  offset="0.7881" style="stop-color:#A9A9A9"/>
			<stop  offset="0.8122" style="stop-color:#BABABA"/>
			<stop  offset="0.842" style="stop-color:#C5C5C5"/>
			<stop  offset="0.8838" style="stop-color:#CCCCCC"/>
			<stop  offset="1" style="stop-color:#CECECE"/>
		</linearGradient>
		<path class="st9" d="M61.28,70.1c0.43,0,0.84,0.06,1.22,0.18c0.38,0.12,0.71,0.29,1,0.52c0.29,0.22,0.51,0.49,0.68,0.81
			c0.16,0.32,0.25,0.67,0.25,1.06c0,0.55-0.1,1.03-0.29,1.44c-0.2,0.41-0.45,0.75-0.77,1.03c-0.32,0.27-0.68,0.48-1.09,0.62
			c-0.41,0.14-0.82,0.21-1.23,0.21c-0.41,0-0.81-0.06-1.18-0.18c-0.38-0.12-0.71-0.3-1-0.54c-0.29-0.24-0.52-0.53-0.69-0.87
			c-0.17-0.34-0.26-0.74-0.26-1.18c0-0.44,0.09-0.85,0.27-1.23c0.18-0.38,0.42-0.7,0.73-0.97c0.31-0.27,0.66-0.49,1.07-0.64
			C60.38,70.18,60.82,70.1,61.28,70.1z M61.25,75.48c0.26,0,0.5-0.06,0.72-0.17c0.22-0.12,0.41-0.29,0.58-0.52
			c0.16-0.23,0.29-0.51,0.39-0.85c0.09-0.34,0.14-0.73,0.14-1.18c0-0.29-0.06-0.57-0.17-0.83c-0.12-0.26-0.27-0.49-0.46-0.69
			c-0.19-0.2-0.41-0.36-0.65-0.47c-0.24-0.12-0.49-0.17-0.73-0.17c-0.22,0-0.44,0.06-0.65,0.19c-0.21,0.13-0.4,0.3-0.58,0.53
			c-0.17,0.23-0.31,0.5-0.41,0.81c-0.1,0.31-0.15,0.66-0.15,1.03c0,0.34,0.06,0.65,0.17,0.93c0.12,0.28,0.27,0.53,0.46,0.74
			c0.19,0.21,0.4,0.37,0.64,0.49C60.78,75.42,61.02,75.48,61.25,75.48z"/>
		<linearGradient id="SVGID_9_" gradientUnits="userSpaceOnUse" x1="66.2911" y1="72.993" x2="71.5896" y2="72.993">
			<stop  offset="0" style="stop-color:#C5C5C5"/>
			<stop  offset="0.0262" style="stop-color:#CBCBCB"/>
			<stop  offset="0.0854" style="stop-color:#D2D2D2"/>
			<stop  offset="0.25" style="stop-color:#D4D4D4"/>
			<stop  offset="0.5" style="stop-color:#E5E5E5"/>
			<stop  offset="0.75" style="stop-color:#797979"/>
			<stop  offset="0.7676" style="stop-color:#939393"/>
			<stop  offset="0.7881" style="stop-color:#A9A9A9"/>
			<stop  offset="0.8122" style="stop-color:#BABABA"/>
			<stop  offset="0.842" style="stop-color:#C5C5C5"/>
			<stop  offset="0.8838" style="stop-color:#CCCCCC"/>
			<stop  offset="1" style="stop-color:#CECECE"/>
		</linearGradient>
		<path class="st10" d="M66.5,70.23c0.06-0.03,0.14-0.06,0.22-0.09c0.08-0.03,0.18-0.04,0.28-0.04c0.16,0,0.29,0.02,0.39,0.06
			c0.1,0.04,0.18,0.09,0.24,0.16c0.06,0.07,0.1,0.15,0.12,0.25c0.02,0.1,0.03,0.2,0.03,0.32v0.02l2.67,3.52v-4.22h1.13v5.69h-0.27
			c-0.08,0-0.15-0.02-0.21-0.05c-0.19-0.06-0.35-0.17-0.5-0.34c-0.15-0.17-0.28-0.34-0.4-0.5l-2.42-3.2v4.09h-1.13v-5.14
			c0-0.1-0.03-0.17-0.1-0.21c-0.07-0.05-0.16-0.07-0.27-0.07l0.01-0.12C66.37,70.31,66.43,70.27,66.5,70.23z"/>
	</g>
	<g>
		<linearGradient id="SVGID_10_" gradientUnits="userSpaceOnUse" x1="43.8633" y1="10.854" x2="43.8633" y2="40.9593">
			<stop  offset="0" style="stop-color:#E1C478"/>
			<stop  offset="0.2263" style="stop-color:#DDBD68"/>
			<stop  offset="0.3827" style="stop-color:#DAB658"/>
			<stop  offset="0.75" style="stop-color:#C6A34F"/>
			<stop  offset="0.758" style="stop-color:#C2A04E"/>
			<stop  offset="0.7964" style="stop-color:#B79749"/>
			<stop  offset="0.8502" style="stop-color:#B09246"/>
			<stop  offset="1" style="stop-color:#AE9145"/>
		</linearGradient>
		<path class="st11" d="M51.26,12.41c-0.13-0.36-0.59-0.77-0.81-1.07c-0.71-0.93-1.41-1.85-2.12-2.78
			c-0.03,0.01-0.06,0.02-0.08,0.04c-1.21,0.95-2.42,1.89-3.63,2.84c-1.12,0.88-1.82,2.11-2.39,3.4c-0.19,0.43-0.19,0.68-0.19,1.14
			c0,3.54,0,7.07,0,10.61c0,0.56,0,1.12,0,1.68c-0.04,0.05-0.08,0.11-0.11,0.16c-0.93,1.27-2.23,2.05-3.37,3.09
			c-1.07,0.97-1.91,2.31-2.09,3.77c-0.16,1.26,0.32,2.37,0.82,3.5c0.76,1.71,1.95,2.9,3.93,2.94c1.82,0.03,3.58-1.03,4.08-2.84
			c0.39-1.4-0.27-2.72-0.85-3.97c-0.6-1.29-1.52-2.18-2.83-2.75c0.1,0.05,0.35,0.93,0.41,1.07c0.09,0.21,0.27,0.93,0.5,1.03
			c0.44,0.19,0.87,0.42,1.25,0.71c0.2,0.15,0.4,0.32,0.58,0.5c0.05,0.05,0.1,0.11,0.15,0.18c0.01,0.07,0.02,0.14,0.02,0.19
			c0,0.23-0.03,0.46-0.07,0.69c-0.09,0.42-0.25,0.84-0.48,1.2c-0.72,1.18-2.07,1.83-3.43,1.87c-0.67,0.02-1.35-0.1-1.96-0.38
			c-0.29-0.13-0.57-0.3-0.81-0.5c-0.12-0.1-0.23-0.2-0.34-0.31c-0.07-1.01,0.03-1.89,0.54-2.87c0.56-1.08,1.39-1.89,2.33-2.63
			c2.04-1.6,3.88-3.5,3.83-6.24c0-0.02,0.01-0.04,0.01-0.07c0-4.26,0-8.53,0-12.79c0.32-0.25,0.64-0.5,0.97-0.76
			c0.27-0.21,0.53-0.42,0.8-0.63c0.06-0.05,0.29-0.29,0.41-0.34c-0.04,0.04,0.12,0.18,0.16,0.25c0.15,0.25,0.37,0.49,0.55,0.72
			c0.5,0.66,1.01,1.32,1.51,1.98c0.17,0.22,0.33,0.45,0.51,0.67c0.07,0.08,0.21,0.31,0.17,0.18c0.11,0.35,0,0.91,0,1.27
			c0,0.77,0,1.54,0,2.31c0,1.31,0,2.61,0,3.92c0,0.22,0.19-0.06,0.24-0.1c0.27-0.26,0.51-0.71,0.7-1.02
			c0.28-0.45,0.54-0.91,0.78-1.39c0.12-0.25,0.37-0.6,0.37-0.88c0-2.31,0-4.61,0-6.92C51.28,12.9,51.34,12.61,51.26,12.41z
			 M37.17,38.14c-0.3-0.35-0.01-0.48,0.19,0.23C37.29,38.29,37.23,38.21,37.17,38.14z"/>
		<g>
			<linearGradient id="SVGID_11_" gradientUnits="userSpaceOnUse" x1="57.5204" y1="2.7405" x2="57.5204" y2="26.4968">
				<stop  offset="0" style="stop-color:#E1C478"/>
				<stop  offset="0.2263" style="stop-color:#DDBD68"/>
				<stop  offset="0.3827" style="stop-color:#DAB658"/>
				<stop  offset="0.75" style="stop-color:#C6A34F"/>
				<stop  offset="0.758" style="stop-color:#C2A04E"/>
				<stop  offset="0.7964" style="stop-color:#B79749"/>
				<stop  offset="0.8502" style="stop-color:#B09246"/>
				<stop  offset="1" style="stop-color:#AE9145"/>
			</linearGradient>
			<path class="st12" d="M62.8,23.1c0-3.11,0-6.23,0-9.34c0-1.94,0-3.87,0-5.81c0-0.48,0.04-0.98,0-1.46
				c-0.03-0.35-0.12-0.38-0.42-0.61c-1.47-1.15-2.95-2.31-4.42-3.46c-0.09-0.07-0.53,0.57-0.49,0.52c-1.38,1.82-2.92,3.59-4.09,5.55
				c-0.46,0.76-1.11,1.66-1.15,2.59c-0.02,0.44,0,0.89,0,1.33c0,1.39,0,2.79,0,4.18c0,0.94,0,1.89,0,2.83
				c0,0.25,0.22-0.06,0.28-0.12c0.31-0.32,0.57-0.8,0.8-1.17c0.32-0.52,0.62-1.05,0.89-1.59c0.14-0.28,0.42-0.69,0.42-1.01
				c0-2.87,0-5.74,0-8.61c-0.63,1.16-1.26,2.31-1.88,3.47c1.12-1.47,2.24-2.94,3.36-4.41c-0.16,0.17-0.33,0.34-0.49,0.52
				c1.32,1.03,2.64,2.06,3.96,3.1c0.24,0.19,0.48,0.41,0.73,0.57c0.19,0.12,0.1-0.02,0.13,0.07c0.1,0.34,0,0.86,0,1.2
				c0,3.96,0,7.93,0,11.89c0,1.21,0,2.42,0,3.63c0,0.25,0.22-0.06,0.28-0.12c0.31-0.32,0.57-0.8,0.8-1.17
				c0.32-0.52,0.62-1.05,0.89-1.59C62.52,23.83,62.8,23.42,62.8,23.1L62.8,23.1z"/>
		</g>
		<linearGradient id="SVGID_12_" gradientUnits="userSpaceOnUse" x1="56.1564" y1="18.9012" x2="56.1564" y2="33.3123">
			<stop  offset="0" style="stop-color:#C5C5C5"/>
			<stop  offset="0.0262" style="stop-color:#CBCBCB"/>
			<stop  offset="0.0854" style="stop-color:#D2D2D2"/>
			<stop  offset="0.25" style="stop-color:#D4D4D4"/>
			<stop  offset="0.5" style="stop-color:#E5E5E5"/>
			<stop  offset="0.75" style="stop-color:#797979"/>
			<stop  offset="0.7676" style="stop-color:#939393"/>
			<stop  offset="0.7881" style="stop-color:#A9A9A9"/>
			<stop  offset="0.8122" style="stop-color:#BABABA"/>
			<stop  offset="0.842" style="stop-color:#C5C5C5"/>
			<stop  offset="0.8838" style="stop-color:#CCCCCC"/>
			<stop  offset="1" style="stop-color:#CECECE"/>
		</linearGradient>
		<path class="st13" d="M56.49,25.56c-0.04-0.04-0.1-0.08-0.15-0.1v-1.79c0.06-0.02,0.11-0.06,0.15-0.1l2.06-2.06
			c0.19-0.19,0.19-0.49,0-0.67l-1.57-1.57c0,0,0-0.01,0-0.01c0-0.46-0.37-0.83-0.83-0.83c-0.46,0-0.83,0.37-0.83,0.83
			c0,0,0,0.01,0,0.01l-1.57,1.57c-0.19,0.19-0.19,0.49,0,0.67l2.06,2.06c0.04,0.04,0.1,0.08,0.15,0.1v1.79
			c-0.06,0.02-0.11,0.06-0.15,0.1l-2.06,2.06c-0.19,0.19-0.19,0.49,0,0.67l1.57,1.57c0,0,0,0.01,0,0.01c0,0.39,0.27,0.72,0.64,0.8
			v2.65c-0.11,0.06-0.18,0.18-0.18,0.32c0,0.2,0.16,0.37,0.37,0.37c0.2,0,0.37-0.16,0.37-0.37c0-0.14-0.07-0.25-0.18-0.32v-2.65
			c0.37-0.08,0.64-0.41,0.64-0.8c0,0,0-0.01,0-0.01l1.57-1.57c0.19-0.19,0.19-0.49,0-0.67L56.49,25.56z"/>
		<linearGradient id="SVGID_13_" gradientUnits="userSpaceOnUse" x1="50.9526" y1="0.3532" x2="50.9526" y2="8.7448">
			<stop  offset="0" style="stop-color:#C5C5C5"/>
			<stop  offset="0.0262" style="stop-color:#CBCBCB"/>
			<stop  offset="0.0854" style="stop-color:#D2D2D2"/>
			<stop  offset="0.25" style="stop-color:#D4D4D4"/>
			<stop  offset="0.5" style="stop-color:#E5E5E5"/>
			<stop  offset="0.75" style="stop-color:#797979"/>
			<stop  offset="0.7676" style="stop-color:#939393"/>
			<stop  offset="0.7881" style="stop-color:#A9A9A9"/>
			<stop  offset="0.8122" style="stop-color:#BABABA"/>
			<stop  offset="0.842" style="stop-color:#C5C5C5"/>
			<stop  offset="0.8838" style="stop-color:#CCCCCC"/>
			<stop  offset="1" style="stop-color:#CECECE"/>
		</linearGradient>
		<path class="st14" d="M51.06,4.03c0,0-0.01,0-0.01-0.01V3.08c0,0,0.01,0,0.01-0.01l1.29-1.29c0.06-0.06,0.06-0.16,0-0.22
			l-0.94-0.94c0,0,0,0,0-0.01c0-0.25-0.2-0.46-0.46-0.46c-0.25,0-0.46,0.2-0.46,0.46c0,0,0,0,0,0.01l-0.94,0.94
			c-0.06,0.06-0.06,0.16,0,0.22l1.29,1.29c0,0,0.01,0,0.01,0.01v0.94c0,0-0.01,0-0.01,0.01l-1.29,1.29c-0.06,0.06-0.06,0.16,0,0.22
			l0.94,0.94c0,0,0,0,0,0.01c0,0.22,0.15,0.4,0.35,0.44V8.4c-0.06,0.04-0.1,0.1-0.1,0.17c0,0.11,0.09,0.2,0.2,0.2
			c0.11,0,0.2-0.09,0.2-0.2c0-0.07-0.04-0.14-0.1-0.17V6.93c0.2-0.05,0.35-0.23,0.35-0.44c0,0,0,0,0-0.01l0.94-0.94
			c0.06-0.06,0.06-0.16,0-0.22L51.06,4.03z"/>
	</g>
	<line class="st18" x1="19.61" y1="53.19" x2="99.6" y2="53.19"/>
	<linearGradient id="SVGID_14_" gradientUnits="userSpaceOnUse" x1="24.5947" y1="46.1923" x2="24.5947" y2="53.2875">
		<stop  offset="0" style="stop-color:#C5C5C5"/>
		<stop  offset="0.0262" style="stop-color:#CBCBCB"/>
		<stop  offset="0.0854" style="stop-color:#D2D2D2"/>
		<stop  offset="0.25" style="stop-color:#D4D4D4"/>
		<stop  offset="0.5" style="stop-color:#E5E5E5"/>
		<stop  offset="0.75" style="stop-color:#797979"/>
		<stop  offset="0.7676" style="stop-color:#939393"/>
		<stop  offset="0.7881" style="stop-color:#A9A9A9"/>
		<stop  offset="0.8122" style="stop-color:#BABABA"/>
		<stop  offset="0.842" style="stop-color:#C5C5C5"/>
		<stop  offset="0.8838" style="stop-color:#CCCCCC"/>
		<stop  offset="1" style="stop-color:#CECECE"/>
	</linearGradient>
	<path class="st15" d="M25.15,48.04c0,0.03,0.04,0.11,0.12,0.23c0.08,0.12,0.18,0.24,0.28,0.37c0.11,0.13,0.2,0.24,0.28,0.34
		c0.08,0.1,0.13,0.15,0.15,0.15c0.12,0.05,0.21,0.1,0.26,0.17c0.05,0.07,0.08,0.21,0.08,0.42c0,0.03-0.06,0.08-0.17,0.16
		c-0.11,0.08-0.24,0.17-0.38,0.29c-0.14,0.12-0.28,0.26-0.42,0.43c-0.14,0.17-0.23,0.36-0.29,0.59c-0.03,0.12-0.15,0.18-0.36,0.18
		c-0.18,0-0.33-0.08-0.44-0.24c-0.11-0.16-0.29-0.37-0.53-0.62c-0.03-0.03-0.09-0.13-0.18-0.3c-0.09-0.17-0.21-0.3-0.36-0.37
		c-0.21-0.09-0.32-0.21-0.32-0.36c0-0.12,0.07-0.23,0.2-0.33c0.14-0.1,0.29-0.21,0.47-0.33c0.18-0.12,0.35-0.25,0.52-0.38
		c0.17-0.14,0.28-0.29,0.34-0.47c0.08-0.14,0.14-0.2,0.18-0.2h0.29C25,47.74,25.09,47.84,25.15,48.04z"/>
	<linearGradient id="SVGID_15_" gradientUnits="userSpaceOnUse" x1="54.7274" y1="46.1923" x2="54.7274" y2="53.2875">
		<stop  offset="0" style="stop-color:#C5C5C5"/>
		<stop  offset="0.0262" style="stop-color:#CBCBCB"/>
		<stop  offset="0.0854" style="stop-color:#D2D2D2"/>
		<stop  offset="0.25" style="stop-color:#D4D4D4"/>
		<stop  offset="0.5" style="stop-color:#E5E5E5"/>
		<stop  offset="0.75" style="stop-color:#797979"/>
		<stop  offset="0.7676" style="stop-color:#939393"/>
		<stop  offset="0.7881" style="stop-color:#A9A9A9"/>
		<stop  offset="0.8122" style="stop-color:#BABABA"/>
		<stop  offset="0.842" style="stop-color:#C5C5C5"/>
		<stop  offset="0.8838" style="stop-color:#CCCCCC"/>
		<stop  offset="1" style="stop-color:#CECECE"/>
	</linearGradient>
	<path class="st16" d="M55.28,48.04c0,0.03,0.04,0.11,0.12,0.23c0.08,0.12,0.18,0.24,0.28,0.36c0.11,0.12,0.2,0.23,0.28,0.34
		c0.08,0.11,0.13,0.16,0.15,0.16c0.12,0.05,0.21,0.1,0.26,0.17c0.05,0.07,0.08,0.21,0.08,0.42c0,0.11-0.06,0.17-0.18,0.18
		c-0.05,0.02-0.12,0.07-0.23,0.17c-0.11,0.1-0.21,0.21-0.33,0.34c-0.11,0.13-0.22,0.26-0.33,0.41c-0.11,0.14-0.17,0.27-0.2,0.37
		c-0.03,0.12-0.15,0.18-0.36,0.18c-0.18,0-0.33-0.08-0.44-0.24c-0.11-0.16-0.29-0.37-0.53-0.62c-0.03-0.03-0.09-0.13-0.18-0.3
		c-0.09-0.17-0.21-0.3-0.36-0.37C53.1,49.73,53,49.61,53,49.46c0-0.08,0.03-0.16,0.1-0.26c0.07-0.1,0.15-0.15,0.24-0.17
		c0.06,0,0.15-0.05,0.28-0.16c0.13-0.11,0.26-0.22,0.38-0.35c0.13-0.13,0.24-0.25,0.35-0.36c0.11-0.11,0.17-0.18,0.18-0.21
		c0.06-0.14,0.12-0.2,0.18-0.2h0.29C55.13,47.74,55.22,47.84,55.28,48.04z"/>
	<linearGradient id="SVGID_16_" gradientUnits="userSpaceOnUse" x1="82.0142" y1="46.1923" x2="82.0142" y2="53.2875">
		<stop  offset="0" style="stop-color:#C5C5C5"/>
		<stop  offset="0.0262" style="stop-color:#CBCBCB"/>
		<stop  offset="0.0854" style="stop-color:#D2D2D2"/>
		<stop  offset="0.25" style="stop-color:#D4D4D4"/>
		<stop  offset="0.5" style="stop-color:#E5E5E5"/>
		<stop  offset="0.75" style="stop-color:#797979"/>
		<stop  offset="0.7676" style="stop-color:#939393"/>
		<stop  offset="0.7881" style="stop-color:#A9A9A9"/>
		<stop  offset="0.8122" style="stop-color:#BABABA"/>
		<stop  offset="0.842" style="stop-color:#C5C5C5"/>
		<stop  offset="0.8838" style="stop-color:#CCCCCC"/>
		<stop  offset="1" style="stop-color:#CECECE"/>
	</linearGradient>
	<path class="st17" d="M82.3,47.74c0.12,0,0.21,0.1,0.27,0.29c0,0.03,0.04,0.11,0.12,0.23c0.08,0.12,0.18,0.24,0.28,0.36
		c0.11,0.12,0.2,0.23,0.28,0.34c0.08,0.11,0.13,0.16,0.15,0.16c0.12,0.05,0.21,0.1,0.26,0.17c0.05,0.07,0.08,0.21,0.08,0.42
		c0,0.11-0.06,0.17-0.18,0.18c-0.05,0.02-0.12,0.07-0.23,0.17c-0.11,0.1-0.21,0.21-0.33,0.34c-0.11,0.13-0.22,0.26-0.33,0.41
		c-0.11,0.14-0.17,0.27-0.2,0.37c-0.03,0.12-0.15,0.18-0.36,0.18c-0.18,0-0.33-0.08-0.44-0.24c-0.11-0.16-0.29-0.37-0.53-0.62
		c-0.03-0.03-0.09-0.13-0.18-0.3c-0.09-0.17-0.21-0.3-0.36-0.37c-0.21-0.09-0.32-0.21-0.32-0.36c0-0.08,0.03-0.16,0.1-0.26
		c0.07-0.1,0.15-0.15,0.24-0.17c0.06,0,0.15-0.05,0.28-0.16c0.13-0.11,0.26-0.22,0.38-0.35c0.13-0.13,0.24-0.25,0.35-0.36
		c0.11-0.11,0.17-0.18,0.18-0.21c0.06-0.14,0.12-0.2,0.18-0.2H82.3z"/>
	<g>
		<g>
			<path class="st22" d="M4.53,64.89c-0.75-0.05-1.48-0.07-2.18-0.08c-0.7-0.01-1.41,0-2.13,0.01c-0.11,0-0.18-0.04-0.23-0.11
				c-0.03-0.06-0.05-0.18-0.07-0.35c-0.02-0.17-0.01-0.28,0.02-0.33c0.45-0.06,0.8-0.17,1.05-0.33c0.25-0.16,0.4-0.48,0.44-0.96
				c0.08-0.8,0.14-1.46,0.2-2c0.06-0.53,0.12-0.99,0.18-1.37C1.87,59,1.93,58.67,2,58.39c0.06-0.28,0.12-0.56,0.19-0.85
				c0.07-0.29,0.14-0.6,0.23-0.94c0.08-0.34,0.18-0.76,0.28-1.26c0.11-0.5,0.23-1.12,0.37-1.84c0.14-0.72,0.3-1.61,0.49-2.67
				c0.05-0.41-0.07-0.68-0.34-0.81c-0.27-0.14-0.78-0.24-1.54-0.32c0.01-0.06,0.04-0.15,0.08-0.27c0.04-0.12,0.08-0.23,0.12-0.32
				l0.09-0.09C2,49,2.06,48.98,2.13,48.98h1.74c0.24,0,0.44,0.01,0.61,0.02c0.39,0.03,0.73,0.14,1.02,0.33
				c0.29,0.19,0.56,0.57,0.81,1.14c0.26,0.56,0.52,1.26,0.8,2.12c0.28,0.86,0.57,1.76,0.87,2.7c0.3,0.94,0.62,1.86,0.96,2.77
				c0.34,0.9,0.7,1.68,1.07,2.33c0.09,0.17,0.18,0.16,0.27-0.02c0.44-0.81,0.82-1.65,1.15-2.52c0.33-0.87,0.64-1.73,0.93-2.59
				c0.29-0.86,0.55-1.71,0.78-2.54c0.23-0.84,0.46-1.63,0.69-2.38c0.89-0.01,1.58-0.03,2.08-0.06c0.5-0.02,0.86-0.03,1.08-0.02
				c0.23,0.01,0.34,0.03,0.35,0.08c0.01,0.05-0.03,0.13-0.11,0.26c-0.08,0.13-0.18,0.31-0.29,0.53c-0.11,0.23-0.18,0.51-0.19,0.86
				c-0.02,0.26,0.01,0.68,0.08,1.26c0.07,0.59,0.15,1.26,0.26,2.01c0.11,0.75,0.23,1.55,0.36,2.38c0.14,0.84,0.26,1.63,0.37,2.37
				c0.11,0.75,0.21,1.4,0.3,1.98c0.09,0.57,0.14,0.97,0.16,1.2c0.05,0.59,0.07,1.16,0.08,1.72c0.01,0.56-0.05,1.05-0.17,1.49
				c-0.12,0.44-0.33,0.79-0.62,1.06c-0.29,0.27-0.73,0.41-1.3,0.41c-0.3,0-0.57,0.01-0.81,0.03c-0.24,0.02-0.6,0.06-1.08,0.12v-0.52
				c0.01-0.18,0.07-0.28,0.16-0.29c0.23-0.06,0.42-0.2,0.58-0.41c0.16-0.21,0.29-0.45,0.38-0.72c0.1-0.27,0.17-0.55,0.23-0.82
				c0.05-0.28,0.09-0.52,0.12-0.71c0.01-0.15-0.05-0.54-0.18-1.16c-0.14-0.62-0.29-1.43-0.47-2.43c-0.18-0.99-0.35-2.15-0.51-3.48
				c-0.16-1.32-0.25-2.77-0.28-4.34c0-0.05-0.05,0.06-0.15,0.3c-0.1,0.25-0.23,0.59-0.4,1.03c-0.17,0.44-0.35,0.93-0.56,1.49
				l-0.63,1.67c-0.21,0.56-0.42,1.09-0.62,1.6c-0.2,0.51-0.39,0.94-0.55,1.29c-0.56,1.16-0.95,2-1.17,2.53
				c-0.23,0.53-0.37,0.84-0.43,0.95c-0.14,0.29-0.24,0.48-0.3,0.59c-0.07,0.11-0.17,0.16-0.3,0.16c-0.11,0-0.2-0.08-0.29-0.25
				c-0.06-0.09-0.19-0.37-0.38-0.85c-0.2-0.47-0.43-1-0.7-1.57c-0.51-1.11-0.94-2.2-1.28-3.25c-0.34-1.05-0.63-2.04-0.86-2.95
				c-0.23-0.91-0.44-1.73-0.62-2.45c-0.18-0.72-0.38-1.3-0.59-1.74c0,0.51-0.06,1.04-0.19,1.58c-0.13,0.54-0.28,1.15-0.45,1.83
				c-0.17,0.68-0.36,1.45-0.55,2.32c-0.2,0.87-0.38,1.87-0.54,3.02c-0.06,0.41-0.09,0.77-0.09,1.08c0,0.32,0.01,0.6,0.03,0.84
				c0.02,0.24,0.05,0.44,0.09,0.61c0.04,0.17,0.06,0.3,0.08,0.41c0.08,0.21,0.19,0.36,0.35,0.45C3.43,63.92,3.7,64,4.1,64.07
				c0.24,0.05,0.37,0.11,0.38,0.2L4.53,64.89z"/>
			<path class="st22" d="M21.1,57.86c0.23-0.45,0.45-0.81,0.67-1.08c0.22-0.27,0.44-0.49,0.66-0.66c0.22-0.17,0.45-0.31,0.69-0.43
				c0.24-0.12,0.5-0.26,0.79-0.43c0.11-0.06,0.2-0.15,0.27-0.27c0.08-0.12,0.14-0.24,0.18-0.36c0.05-0.12,0.08-0.23,0.11-0.32
				c0.03-0.09,0.06-0.14,0.09-0.14c0.03,0,0.05,0.04,0.07,0.12c0.01,0.08,0.05,0.18,0.09,0.3c0.05,0.12,0.12,0.25,0.23,0.38
				c0.11,0.14,0.27,0.26,0.5,0.36c0.23,0.11,0.46,0.21,0.7,0.33c0.24,0.11,0.47,0.24,0.7,0.38c0.23,0.14,0.5,0.43,0.81,0.85
				c0.32,0.42,0.55,0.87,0.69,1.36c0.14,0.48,0.18,0.93,0.11,1.34c-0.07,0.41-0.14,0.71-0.2,0.88c-0.07,0.17-0.17,0.31-0.3,0.4
				c-0.14,0.09-0.32,0.15-0.55,0.17c-0.23,0.02-0.53,0.03-0.89,0.03c-0.65,0-1.24-0.05-1.78-0.15c-0.54-0.1-1.08-0.29-1.6-0.58
				c-0.05,0.02-0.08,0.05-0.11,0.09c-0.03,0.05-0.05,0.14-0.05,0.29c-0.03,1.46,0.22,2.41,0.75,2.85c0.53,0.44,1.46,0.35,2.8-0.27
				c-0.14,0.03-0.1,0.14,0.11,0.34c0.21,0.2,0.04,0.46-0.51,0.79c-0.55,0.33-1.09,0.5-1.62,0.5c-0.42,0-0.81-0.05-1.16-0.16
				c-0.35-0.11-0.66-0.23-0.91-0.38c-0.26-0.15-0.47-0.3-0.64-0.44c-0.17-0.14-0.3-0.26-0.37-0.35c-0.21-0.26-0.43-0.62-0.66-1.08
				c-0.23-0.47-0.34-0.94-0.34-1.43c0-0.49,0.01-0.85,0.02-1.08c0.01-0.23,0.05-0.46,0.1-0.67c0.05-0.21,0.12-0.43,0.21-0.67
				C20.83,58.45,20.95,58.18,21.1,57.86z M25.83,58.58c0-0.23-0.04-0.46-0.11-0.69c-0.08-0.23-0.18-0.44-0.32-0.63
				c-0.14-0.19-0.29-0.34-0.46-0.45c-0.17-0.11-0.36-0.17-0.55-0.17c-0.18,0-0.35,0.07-0.52,0.2c-0.17,0.14-0.32,0.32-0.45,0.56
				c-0.14,0.24-0.24,0.52-0.33,0.85c-0.08,0.32-0.12,0.68-0.12,1.07c0,0.15,0.09,0.28,0.26,0.37c0.17,0.1,0.37,0.18,0.59,0.24
				c0.22,0.06,0.43,0.1,0.63,0.12c0.2,0.02,0.33,0.03,0.4,0.03h0.32c0.09,0,0.17-0.01,0.25-0.05c0.08-0.03,0.15-0.09,0.21-0.19
				c0.07-0.1,0.12-0.25,0.16-0.45c0.04-0.2,0.06-0.47,0.06-0.8V58.58z"/>
			<path class="st22" d="M29.51,64.37c0-0.03-0.01-0.05-0.02-0.05V64.3l0.02-0.02c0.27-0.12,0.49-0.23,0.66-0.32
				c0.17-0.09,0.29-0.21,0.38-0.36c0.09-0.15,0.15-0.34,0.17-0.56c0.02-0.23,0.03-0.53,0.03-0.93v-8.45v-1.02v-3.28
				c0-0.27,0-0.48-0.01-0.63c-0.01-0.15-0.04-0.28-0.1-0.4c-0.06-0.11-0.15-0.23-0.26-0.34c-0.11-0.11-0.27-0.26-0.49-0.44
				c-0.06-0.06-0.09-0.13-0.09-0.2c0-0.09,0.04-0.16,0.11-0.2c0.14-0.09,0.34-0.14,0.61-0.14l1.58,0.11c0.3,0,0.53-0.04,0.68-0.11
				c0.09-0.03,0.14-0.05,0.16-0.05c0.05,0,0.08,0.02,0.11,0.05c0.06,0.11,0.09,0.21,0.09,0.32c0,0.26,0,0.52-0.01,0.79
				c-0.01,0.27-0.02,0.58-0.03,0.91c-0.02,0.34-0.03,0.72-0.03,1.15c-0.01,0.43-0.01,0.94-0.01,1.52v0.93v1.02v2.94
				c0,0.08,0,0.15,0.01,0.24c0.01,0.08,0.05,0.12,0.12,0.12h0.02c0.09-0.05,0.24-0.14,0.44-0.28c0.2-0.14,0.42-0.3,0.64-0.46
				c0.23-0.17,0.44-0.32,0.66-0.46c0.21-0.14,0.37-0.24,0.47-0.28c0.5-0.17,0.9-0.25,1.22-0.25c0.47,0,0.87,0.11,1.2,0.32
				c0.33,0.21,0.6,0.5,0.81,0.86c0.21,0.36,0.36,0.79,0.46,1.28c0.1,0.49,0.15,1.01,0.15,1.57c0,0.2,0,0.51-0.01,0.95
				c-0.01,0.44-0.02,0.9-0.05,1.39c-0.02,0.49-0.05,0.96-0.08,1.42c-0.03,0.46-0.07,0.82-0.11,1.07c-0.14,0.75-0.37,1.35-0.7,1.8
				c-0.33,0.44-0.7,0.78-1.11,1.01c-0.41,0.23-0.82,0.38-1.25,0.45c-0.43,0.08-0.81,0.12-1.14,0.14c-0.05,0-0.08-0.02-0.09-0.06
				c-0.02-0.04-0.02-0.13-0.02-0.28v-0.14c0-0.12,0.02-0.2,0.07-0.25c0.05-0.03,0.12-0.06,0.24-0.1c0.11-0.04,0.22-0.08,0.33-0.12
				c0.09-0.05,0.2-0.11,0.32-0.19c0.12-0.08,0.24-0.22,0.37-0.41c0.13-0.19,0.26-0.44,0.38-0.77c0.13-0.32,0.25-0.75,0.37-1.28
				c0.09-0.38,0.15-0.73,0.18-1.05c0.03-0.32,0.05-0.63,0.05-0.91c0-0.27-0.01-0.52-0.02-0.76c-0.02-0.23-0.02-0.46-0.02-0.69
				c0-0.48-0.02-0.88-0.07-1.2c-0.05-0.32-0.1-0.58-0.17-0.8c-0.07-0.22-0.15-0.39-0.25-0.52c-0.1-0.13-0.2-0.24-0.3-0.33
				c-0.21-0.15-0.41-0.25-0.6-0.29c-0.19-0.05-0.37-0.07-0.53-0.07c-0.62,0-1.2,0.12-1.74,0.36c-0.17,0.06-0.25,0.23-0.25,0.5v2.51
				c0,1.02-0.03,1.82-0.1,2.38c-0.07,0.56-0.2,0.98-0.38,1.24c-0.19,0.26-0.46,0.43-0.81,0.5c-0.35,0.07-0.82,0.12-1.41,0.15h-0.27
				c-0.09,0-0.19,0.01-0.29,0.02c-0.06,0-0.11-0.02-0.14-0.07L29.51,64.37z"/>
			<path class="st22" d="M41.55,65.32c0.29-0.05,0.5-0.15,0.66-0.32c0.15-0.17,0.26-0.35,0.33-0.54c0.07-0.2,0.11-0.38,0.11-0.56
				c0.01-0.18,0.02-0.3,0.03-0.36c0.05-0.27,0.07-1.23,0.07-2.87v-1.78c0-0.17-0.01-0.35-0.02-0.54c-0.02-0.2-0.05-0.38-0.1-0.55
				c-0.05-0.17-0.14-0.33-0.25-0.47c-0.11-0.14-0.27-0.24-0.46-0.3c-0.12-0.03-0.22-0.12-0.29-0.27c-0.08-0.15-0.1-0.26-0.07-0.34
				c0.23-0.14,0.48-0.22,0.77-0.25c0.29-0.03,0.57-0.05,0.85-0.07c0.28-0.01,0.54-0.03,0.79-0.05c0.25-0.01,0.45-0.08,0.6-0.18
				c0.11-0.06,0.2-0.09,0.27-0.09c0.03,0,0.09,0.04,0.19,0.12c0.1,0.08,0.13,0.17,0.1,0.26c-0.02,0.15-0.03,0.28-0.05,0.38
				c-0.02,0.11-0.03,0.21-0.03,0.33c-0.01,0.11-0.02,0.24-0.02,0.4C45.01,57.4,45,57.6,45,57.84c0.11-0.08,0.25-0.19,0.43-0.34
				c0.18-0.15,0.37-0.31,0.58-0.47c0.2-0.17,0.4-0.33,0.6-0.5c0.2-0.17,0.35-0.29,0.47-0.38c0.08-0.08,0.17-0.14,0.29-0.2
				c0.12-0.06,0.26-0.09,0.41-0.09c0.17,0,0.33,0.04,0.49,0.11c0.16,0.08,0.3,0.17,0.44,0.28c0.14,0.11,0.24,0.24,0.33,0.38
				c0.08,0.14,0.12,0.29,0.12,0.44c0,0.14-0.04,0.28-0.11,0.43c-0.08,0.15-0.16,0.29-0.26,0.43c-0.1,0.14-0.2,0.26-0.29,0.36
				c-0.1,0.11-0.17,0.18-0.21,0.23c-0.18,0.14-0.35,0.2-0.52,0.2c-0.15,0-0.29-0.07-0.41-0.2c-0.08-0.11-0.21-0.22-0.4-0.34
				C46.77,58.06,46.61,58,46.47,58c-0.2,0-0.4,0.04-0.62,0.12c-0.22,0.08-0.41,0.2-0.58,0.35c-0.09,0.09-0.15,0.21-0.19,0.36
				c-0.04,0.15-0.06,0.43-0.06,0.84v2.73c0,0.27-0.02,0.49-0.05,0.64c-0.03,0.16-0.02,0.27,0.02,0.35c0,0.29-0.07,0.56-0.2,0.82
				c-0.14,0.26-0.3,0.5-0.5,0.71c-0.2,0.21-0.4,0.39-0.6,0.53c-0.2,0.14-0.37,0.23-0.49,0.26c-0.47,0.11-0.79,0.17-0.96,0.18
				c-0.17,0.01-0.29,0.02-0.35,0.02c-0.12,0-0.16-0.06-0.11-0.18L41.55,65.32z"/>
			<path class="st22" d="M51.17,57.64c0.44-0.53,0.89-0.97,1.37-1.34c0.47-0.37,0.98-0.71,1.52-1.03c0.11-0.06,0.2-0.15,0.27-0.27
				c0.08-0.12,0.14-0.24,0.18-0.36c0.05-0.12,0.08-0.23,0.11-0.32c0.03-0.09,0.06-0.14,0.09-0.14c0.03,0,0.05,0.04,0.07,0.12
				c0.01,0.08,0.05,0.18,0.09,0.3c0.05,0.12,0.12,0.25,0.23,0.38c0.11,0.14,0.27,0.26,0.5,0.36c0.51,0.24,1.02,0.48,1.51,0.72
				c0.5,0.24,0.94,0.54,1.34,0.89c0.4,0.35,0.72,0.79,0.96,1.32c0.24,0.53,0.36,1.19,0.36,1.99c0,0.57-0.08,1.08-0.25,1.51
				c-0.17,0.44-0.35,0.81-0.56,1.12c-0.21,0.31-0.43,0.55-0.64,0.73c-0.22,0.18-0.38,0.3-0.49,0.36c-0.45,0.27-0.96,0.5-1.52,0.69
				c-0.56,0.19-1.08,0.28-1.55,0.28c-0.24,0-0.53-0.03-0.86-0.09c-0.33-0.06-0.66-0.16-0.99-0.31c-0.33-0.14-0.65-0.32-0.96-0.53
				c-0.31-0.21-0.58-0.46-0.8-0.75c-0.3-0.39-0.53-0.85-0.69-1.39c-0.16-0.53-0.24-1.04-0.24-1.5c0-0.47,0.08-0.96,0.25-1.47
				C50.64,58.43,50.87,58,51.17,57.64z M54.48,56.55c-0.26-0.03-0.46,0.02-0.61,0.16c-0.15,0.14-0.33,0.29-0.54,0.45
				c-0.15,0.24-0.28,0.58-0.37,1.02c-0.1,0.44-0.15,0.96-0.15,1.58c0,0.72,0.1,1.39,0.31,1.99c0.2,0.6,0.44,1.05,0.69,1.36
				c0.32,0.36,0.62,0.61,0.92,0.75c0.29,0.14,0.58,0.2,0.85,0.2c0.18,0,0.36-0.03,0.53-0.09c0.17-0.06,0.32-0.16,0.44-0.29
				c0.21-0.21,0.39-0.52,0.53-0.91c0.14-0.4,0.22-0.94,0.22-1.64c0-0.3-0.02-0.63-0.06-0.98c-0.04-0.35-0.1-0.7-0.19-1.05
				c-0.09-0.35-0.21-0.68-0.35-0.99c-0.14-0.32-0.32-0.58-0.53-0.79c-0.21-0.21-0.47-0.39-0.76-0.53c-0.29-0.14-0.59-0.21-0.9-0.21
				H54.48z"/>
			<path class="st22" d="M69.94,65.77h-1.11c-0.27,0-0.51,0-0.71,0.01c-0.2,0.01-0.4,0.02-0.59,0.03c-0.19,0.01-0.42,0.03-0.69,0.05
				c-0.05,0-0.07-0.02-0.07-0.05c0-0.06,0-0.15,0.01-0.26c0.01-0.11,0.01-0.2,0.01-0.26c0-0.06,0.04-0.11,0.11-0.14
				c0.39-0.17,0.63-0.28,0.72-0.35c0.09-0.07,0.14-0.17,0.16-0.31c0.06-0.45,0.14-1.16,0.25-2.12c0.11-0.96,0.16-1.87,0.16-2.71
				c0-0.56-0.03-0.96-0.08-1.2c-0.05-0.24-0.14-0.44-0.26-0.61c-0.12-0.14-0.29-0.25-0.5-0.34c-0.21-0.09-0.46-0.14-0.75-0.14
				c-0.24,0-0.5,0.05-0.77,0.14c-0.21,0.17-0.42,0.35-0.63,0.56l-0.59,0.59c-0.02,0.14-0.03,0.3-0.03,0.51
				c-0.01,0.2-0.01,0.42-0.01,0.64v1.31c0,0.63,0.01,1.21,0.02,1.73c0.01,0.52-0.1,0.96-0.34,1.33c-0.24,0.37-0.47,0.55-0.68,0.55
				c-1.25,0.11-1.98,0.17-2.19,0.2c-0.05-0.03-0.07-0.13-0.08-0.3c-0.01-0.17,0-0.31,0.01-0.42c0.09-0.03,0.2-0.08,0.34-0.14
				c0.14-0.06,0.24-0.14,0.32-0.25c0.14-0.08,0.23-0.2,0.27-0.38c0.03-0.23,0.05-0.6,0.07-1.12c0.01-0.52,0.02-1.19,0.02-2.02
				c0-0.63,0-1.1-0.01-1.39c-0.01-0.29-0.02-0.5-0.03-0.62c-0.02-0.06-0.03-0.16-0.05-0.29c-0.02-0.14-0.04-0.27-0.08-0.41
				c-0.04-0.14-0.09-0.26-0.16-0.37c-0.07-0.11-0.16-0.18-0.28-0.21c-0.14-0.03-0.23-0.06-0.29-0.1c-0.06-0.04-0.11-0.09-0.14-0.17
				c-0.03-0.03-0.06-0.09-0.08-0.19c-0.02-0.1-0.02-0.16,0.01-0.19c0.35-0.24,0.72-0.41,1.11-0.5c0.39-0.09,0.75-0.13,1.08-0.12
				c0.33,0.01,0.61,0.05,0.82,0.12c0.22,0.08,0.33,0.16,0.33,0.25l-0.02,0.41c0.29,0.03,0.58-0.04,0.88-0.21
				c0.3-0.17,0.65-0.37,1.04-0.6c0.11-0.06,0.2-0.15,0.27-0.27c0.08-0.12,0.14-0.24,0.18-0.36c0.05-0.12,0.08-0.23,0.11-0.32
				c0.03-0.09,0.06-0.14,0.09-0.14c0.03,0,0.05,0.04,0.07,0.12c0.01,0.08,0.05,0.18,0.09,0.3c0.05,0.12,0.12,0.24,0.21,0.37
				c0.1,0.13,0.25,0.24,0.46,0.35c0.47,0.03,0.86,0.16,1.17,0.4c0.32,0.23,0.6,0.53,0.86,0.89c0.17-0.23,0.33-0.42,0.49-0.58
				c0.16-0.16,0.32-0.3,0.5-0.42c0.17-0.12,0.35-0.23,0.53-0.33c0.18-0.1,0.38-0.21,0.61-0.35c0.11-0.06,0.2-0.15,0.27-0.27
				c0.08-0.12,0.14-0.24,0.18-0.36c0.05-0.12,0.08-0.23,0.11-0.32c0.03-0.09,0.06-0.14,0.09-0.14c0.03,0,0.05,0.04,0.07,0.12
				c0.01,0.08,0.05,0.18,0.09,0.31c0.05,0.12,0.12,0.25,0.23,0.38c0.11,0.14,0.27,0.26,0.5,0.36c0.18,0.09,0.36,0.17,0.53,0.25
				c0.17,0.08,0.34,0.15,0.51,0.23c0.27,0.11,0.5,0.23,0.68,0.38c0.09,0.09,0.19,0.2,0.29,0.32c0.11,0.12,0.2,0.29,0.28,0.5
				c0.08,0.21,0.15,0.49,0.21,0.82c0.06,0.34,0.09,0.78,0.09,1.32c0,0.29,0.01,0.64,0.02,1.07c0.01,0.43,0.02,0.87,0.02,1.32
				c0,0.44-0.01,0.86-0.02,1.26c-0.02,0.41-0.05,0.72-0.09,0.95c-0.18,0.83-0.39,1.48-0.62,1.95c-0.23,0.47-0.49,0.84-0.77,1.1
				c-0.28,0.26-0.58,0.43-0.91,0.52c-0.33,0.09-0.69,0.17-1.06,0.23h-0.11c-0.05,0-0.08-0.02-0.09-0.05
				c-0.02-0.05-0.03-0.12-0.05-0.21c-0.02-0.1-0.04-0.17-0.07-0.21c0-0.11,0.04-0.17,0.11-0.2c0.2-0.08,0.42-0.31,0.68-0.7
				c0.26-0.39,0.47-0.98,0.63-1.76c0.08-0.38,0.12-0.76,0.15-1.16c0.02-0.4,0.03-0.78,0.02-1.14c-0.01-0.36-0.02-0.69-0.03-0.97
				c-0.02-0.29-0.02-0.5-0.02-0.63c0-0.9-0.05-1.54-0.15-1.92c-0.1-0.38-0.24-0.65-0.42-0.84c-0.17-0.18-0.34-0.3-0.53-0.37
				c-0.19-0.07-0.39-0.1-0.6-0.1c-0.23,0-0.5,0.05-0.81,0.16c-0.32,0.11-0.6,0.23-0.86,0.36l-0.2,0.2
				c-0.03,0.06-0.05,0.15-0.05,0.27c0,0.33,0,0.78,0.01,1.34c0.01,0.56,0.01,1.26,0,2.1c-0.01,0.84-0.05,1.52-0.12,2.04
				c-0.08,0.53-0.1,0.93-0.07,1.2L69.94,65.77z"/>
			<path class="st22" d="M78.91,57.32c0.18-0.3,0.37-0.53,0.58-0.7c0.2-0.17,0.41-0.31,0.63-0.44c0.22-0.13,0.45-0.24,0.69-0.35
				c0.24-0.11,0.5-0.24,0.79-0.41c0.11-0.06,0.2-0.15,0.27-0.27c0.08-0.12,0.14-0.24,0.18-0.36c0.05-0.12,0.08-0.23,0.11-0.32
				c0.03-0.09,0.06-0.14,0.09-0.14c0.03,0,0.05,0.04,0.07,0.12c0.01,0.08,0.05,0.18,0.09,0.31c0.05,0.12,0.12,0.25,0.23,0.38
				c0.11,0.14,0.27,0.26,0.5,0.36c0.35,0.17,0.68,0.31,0.99,0.42c0.32,0.11,0.58,0.28,0.79,0.51c0.21,0.24,0.35,0.46,0.41,0.67
				c0.06,0.2,0.09,0.4,0.09,0.6c0.14,0.36,0.17,1.54,0.11,3.52c-0.06,1.99,0,3.4,0.18,4.24c0.18,0.84,0.32,1.25,0.41,1.25
				c0.17,0,0.35-0.03,0.56-0.1c0.21-0.07,0.35-0.12,0.43-0.17c0.05-0.03,0.1,0,0.17,0.08c0.07,0.08,0.09,0.16,0.08,0.24l-0.07,0.41
				c0,0.09-0.06,0.17-0.18,0.23c-0.09,0.05-0.24,0.11-0.45,0.18c-0.21,0.08-0.45,0.15-0.71,0.21c-0.26,0.07-0.54,0.13-0.82,0.18
				c-0.29,0.05-0.55,0.08-0.79,0.08c-0.11,0-0.23-0.17-0.36-0.52c-0.14-0.35-0.26-0.75-0.38-1.22c-0.12-0.47-0.23-0.94-0.33-1.41
				c-0.1-0.47-0.16-0.84-0.19-1.1c-0.24,0.14-0.51,0.27-0.81,0.42c-0.3,0.14-0.59,0.27-0.87,0.4c-0.28,0.12-0.52,0.22-0.73,0.29
				c-0.21,0.08-0.35,0.11-0.43,0.11c-0.47,0-0.93-0.21-1.38-0.63c-0.12-0.12-0.26-0.33-0.42-0.64c-0.16-0.31-0.24-0.69-0.24-1.14
				c0-0.15,0.06-0.31,0.18-0.49c0.12-0.17,0.27-0.35,0.44-0.52c0.17-0.17,0.36-0.33,0.55-0.47c0.2-0.14,0.38-0.26,0.54-0.35
				c0.53-0.27,1.05-0.55,1.56-0.82c0.51-0.28,1.07-0.46,1.67-0.55c0-0.12,0-0.21,0.01-0.26c0.01-0.05,0.01-0.1,0.01-0.15v-0.41
				c0-0.38-0.03-0.7-0.1-0.96c-0.07-0.26-0.15-0.43-0.26-0.51c-0.09-0.11-0.25-0.2-0.49-0.28c-0.23-0.08-0.5-0.12-0.8-0.12
				c-0.11,0.06-0.21,0.13-0.33,0.2c-0.11,0.08-0.23,0.15-0.35,0.23c-0.02,0.11-0.03,0.23-0.03,0.36c-0.01,0.14-0.01,0.31-0.01,0.52
				c0,0.15-0.05,0.24-0.16,0.27l-1.42,0.43c-0.12,0.05-0.23,0.08-0.32,0.09c-0.09,0.02-0.15,0.02-0.18,0.02
				c-0.23,0-0.36-0.06-0.4-0.17c-0.04-0.11-0.02-0.25,0.05-0.42c0.07-0.17,0.16-0.33,0.28-0.51C78.76,57.56,78.85,57.43,78.91,57.32
				z M81.62,63.62c0.09,0,0.23-0.03,0.41-0.08c0.18-0.05,0.41-0.14,0.68-0.26c0.21-0.12,0.34-0.28,0.38-0.47
				c0-0.08,0-0.18,0.01-0.33c0.01-0.14,0.01-0.3,0.02-0.46c0.01-0.17,0.01-0.32,0.01-0.47v-0.36c0-0.26-0.04-0.38-0.11-0.38
				c-0.27,0.05-0.48,0.09-0.62,0.15c-0.14,0.05-0.25,0.11-0.33,0.17c-0.08,0.06-0.14,0.12-0.19,0.18c-0.05,0.06-0.14,0.13-0.26,0.2
				c-0.09,0.08-0.16,0.17-0.21,0.27c-0.05,0.11-0.08,0.26-0.08,0.47c0,0.18-0.02,0.36-0.06,0.53c-0.04,0.17-0.06,0.32-0.07,0.44
				c-0.01,0.12,0.01,0.22,0.07,0.29c0.05,0.08,0.16,0.11,0.33,0.11H81.62z"/>
			<path class="st22" d="M87.29,64.37c0-0.03-0.01-0.05-0.02-0.05V64.3l0.02-0.02c0.27-0.12,0.49-0.23,0.66-0.32
				c0.17-0.09,0.29-0.21,0.38-0.36c0.09-0.15,0.15-0.34,0.17-0.56c0.02-0.23,0.03-0.53,0.03-0.93v-8.45v-1.02v-3.28
				c0-0.27,0-0.48-0.01-0.63c-0.01-0.15-0.04-0.28-0.1-0.4c-0.06-0.11-0.15-0.23-0.26-0.34c-0.11-0.11-0.27-0.26-0.49-0.44
				c-0.06-0.06-0.09-0.13-0.09-0.2c0-0.09,0.04-0.16,0.11-0.2c0.14-0.09,0.34-0.14,0.61-0.14l1.58,0.11c0.3,0,0.53-0.04,0.68-0.11
				c0.09-0.03,0.14-0.05,0.16-0.05c0.05,0,0.08,0.02,0.11,0.05c0.06,0.11,0.09,0.21,0.09,0.32c0,0.26,0,0.52-0.01,0.79
				c-0.01,0.27-0.02,0.58-0.03,0.91c-0.02,0.34-0.03,0.72-0.03,1.15c-0.01,0.43-0.01,0.94-0.01,1.52v0.93v1.02v2.94
				c0,0.08,0,0.15,0.01,0.24c0.01,0.08,0.05,0.12,0.12,0.12h0.02c0.09-0.05,0.24-0.14,0.44-0.28c0.2-0.14,0.42-0.3,0.64-0.46
				c0.23-0.17,0.44-0.32,0.66-0.46c0.21-0.14,0.37-0.24,0.47-0.28c0.5-0.17,0.9-0.25,1.22-0.25c0.47,0,0.87,0.11,1.2,0.32
				c0.33,0.21,0.6,0.5,0.81,0.86c0.21,0.36,0.36,0.79,0.46,1.28c0.1,0.49,0.15,1.01,0.15,1.57c0,0.2,0,0.51-0.01,0.95
				c-0.01,0.44-0.02,0.9-0.05,1.39c-0.02,0.49-0.05,0.96-0.08,1.42c-0.03,0.46-0.07,0.82-0.11,1.07c-0.14,0.75-0.37,1.35-0.7,1.8
				c-0.33,0.44-0.7,0.78-1.11,1.01c-0.41,0.23-0.82,0.38-1.25,0.45c-0.43,0.08-0.81,0.12-1.14,0.14c-0.05,0-0.08-0.02-0.09-0.06
				c-0.02-0.04-0.02-0.13-0.02-0.28v-0.14c0-0.12,0.02-0.2,0.07-0.25c0.05-0.03,0.12-0.06,0.24-0.1c0.11-0.04,0.22-0.08,0.33-0.12
				c0.09-0.05,0.2-0.11,0.32-0.19c0.12-0.08,0.24-0.22,0.37-0.41c0.13-0.19,0.26-0.44,0.38-0.77c0.13-0.32,0.25-0.75,0.37-1.28
				c0.09-0.38,0.15-0.73,0.18-1.05c0.03-0.32,0.05-0.63,0.05-0.91c0-0.27-0.01-0.52-0.02-0.76c-0.02-0.23-0.02-0.46-0.02-0.69
				c0-0.48-0.02-0.88-0.07-1.2c-0.05-0.32-0.1-0.58-0.17-0.8c-0.07-0.22-0.15-0.39-0.25-0.52c-0.1-0.13-0.2-0.24-0.31-0.33
				c-0.21-0.15-0.41-0.25-0.6-0.29c-0.19-0.05-0.37-0.07-0.53-0.07c-0.62,0-1.2,0.12-1.74,0.36c-0.17,0.06-0.25,0.23-0.25,0.5v2.51
				c0,1.02-0.03,1.82-0.1,2.38s-0.2,0.98-0.38,1.24c-0.19,0.26-0.46,0.43-0.81,0.5c-0.35,0.07-0.82,0.12-1.41,0.15h-0.27
				c-0.09,0-0.19,0.01-0.29,0.02c-0.06,0-0.11-0.02-0.14-0.07L87.29,64.37z"/>
		</g>
	</g>
</g>
</svg>
